<svg id="visual" viewBox="0 0 900 600" width="900" height="600" xmlns="http://www.w3.org/2000/svg" xmlns:xlink="http://www.w3.org/1999/xlink" version="1.1"><rect x="0" y="0" width="900" height="600" fill="#EDF6F9"></rect><defs><linearGradient id="grad1_0" x1="33.3%" y1="0%" x2="100%" y2="100%"><stop offset="20%" stop-color="#e29578" stop-opacity="1"></stop><stop offset="80%" stop-color="#e29578" stop-opacity="1"></stop></linearGradient></defs><defs><linearGradient id="grad1_1" x1="33.3%" y1="0%" x2="100%" y2="100%"><stop offset="20%" stop-color="#e29578" stop-opacity="1"></stop><stop offset="80%" stop-color="#d5ae7c" stop-opacity="1"></stop></linearGradient></defs><defs><linearGradient id="grad1_2" x1="33.3%" y1="0%" x2="100%" y2="100%"><stop offset="20%" stop-color="#c5c392" stop-opacity="1"></stop><stop offset="80%" stop-color="#d5ae7c" stop-opacity="1"></stop></linearGradient></defs><defs><linearGradient id="grad1_3" x1="33.3%" y1="0%" x2="100%" y2="100%"><stop offset="20%" stop-color="#c5c392" stop-opacity="1"></stop><stop offset="80%" stop-color="#bbd5b2" stop-opacity="1"></stop></linearGradient></defs><defs><linearGradient id="grad1_4" x1="33.3%" y1="0%" x2="100%" y2="100%"><stop offset="20%" stop-color="#bfe2d3" stop-opacity="1"></stop><stop offset="80%" stop-color="#bbd5b2" stop-opacity="1"></stop></linearGradient></defs><defs><linearGradient id="grad1_5" x1="33.3%" y1="0%" x2="100%" y2="100%"><stop offset="20%" stop-color="#bfe2d3" stop-opacity="1"></stop><stop offset="80%" stop-color="#d2edec" stop-opacity="1"></stop></linearGradient></defs><defs><linearGradient id="grad1_6" x1="33.3%" y1="0%" x2="100%" y2="100%"><stop offset="20%" stop-color="#edf6f9" stop-opacity="1"></stop><stop offset="80%" stop-color="#d2edec" stop-opacity="1"></stop></linearGradient></defs><defs><linearGradient id="grad2_0" x1="0%" y1="0%" x2="66.7%" y2="100%"><stop offset="20%" stop-color="#e29578" stop-opacity="1"></stop><stop offset="80%" stop-color="#e29578" stop-opacity="1"></stop></linearGradient></defs><defs><linearGradient id="grad2_1" x1="0%" y1="0%" x2="66.7%" y2="100%"><stop offset="20%" stop-color="#d5ae7c" stop-opacity="1"></stop><stop offset="80%" stop-color="#e29578" stop-opacity="1"></stop></linearGradient></defs><defs><linearGradient id="grad2_2" x1="0%" y1="0%" x2="66.7%" y2="100%"><stop offset="20%" stop-color="#d5ae7c" stop-opacity="1"></stop><stop offset="80%" stop-color="#c5c392" stop-opacity="1"></stop></linearGradient></defs><defs><linearGradient id="grad2_3" x1="0%" y1="0%" x2="66.7%" y2="100%"><stop offset="20%" stop-color="#bbd5b2" stop-opacity="1"></stop><stop offset="80%" stop-color="#c5c392" stop-opacity="1"></stop></linearGradient></defs><defs><linearGradient id="grad2_4" x1="0%" y1="0%" x2="66.7%" y2="100%"><stop offset="20%" stop-color="#bbd5b2" stop-opacity="1"></stop><stop offset="80%" stop-color="#bfe2d3" stop-opacity="1"></stop></linearGradient></defs><defs><linearGradient id="grad2_5" x1="0%" y1="0%" x2="66.7%" y2="100%"><stop offset="20%" stop-color="#d2edec" stop-opacity="1"></stop><stop offset="80%" stop-color="#bfe2d3" stop-opacity="1"></stop></linearGradient></defs><defs><linearGradient id="grad2_6" x1="0%" y1="0%" x2="66.7%" y2="100%"><stop offset="20%" stop-color="#d2edec" stop-opacity="1"></stop><stop offset="80%" stop-color="#edf6f9" stop-opacity="1"></stop></linearGradient></defs><g transform="translate(900, 0)"><path d="M0 513.8C-41.4 518.6 -82.8 523.4 -114.3 500.9C-145.8 478.4 -167.4 428.7 -193.5 401.8C-219.7 375 -250.4 371.1 -291.2 365.1C-331.9 359.1 -382.6 350.9 -400.3 319.2C-418 287.6 -402.6 232.5 -399.1 192.2C-395.6 152 -404 126.6 -425.1 97C-446.2 67.5 -480 33.7 -513.8 0L0 0Z" fill="#dff1f4"></path><path d="M0 440.4C-35.5 444.5 -71 448.6 -98 429.4C-125 410.1 -143.4 367.4 -165.9 344.4C-188.3 321.4 -214.7 318.1 -249.6 313C-284.5 307.8 -328 300.8 -343.1 273.6C-358.3 246.5 -345.1 199.3 -342.1 164.8C-339.1 130.3 -346.3 108.5 -364.3 83.2C-382.4 57.8 -411.4 28.9 -440.4 0L0 0Z" fill="#c7e8e1"></path><path d="M0 367C-29.6 370.4 -59.2 373.9 -81.7 357.8C-104.2 341.7 -119.5 306.2 -138.2 287C-156.9 267.9 -178.9 265.1 -208 260.8C-237.1 256.5 -273.3 250.6 -285.9 228C-298.6 205.4 -287.6 166 -285.1 137.3C-282.6 108.5 -288.6 90.4 -303.6 69.3C-318.7 48.2 -342.8 24.1 -367 0L0 0Z" fill="#bbdcc3"></path><path d="M0 293.6C-23.7 296.3 -47.3 299.1 -65.3 286.2C-83.3 273.4 -95.6 244.9 -110.6 229.6C-125.5 214.3 -143.1 212.1 -166.4 208.6C-189.7 205.2 -218.6 200.5 -228.7 182.4C-238.8 164.3 -230.1 132.8 -228.1 109.8C-226.1 86.8 -230.8 72.3 -242.9 55.4C-254.9 38.5 -274.3 19.3 -293.6 0L0 0Z" fill="#bfcda2"></path><path d="M0 220.2C-17.8 222.3 -35.5 224.3 -49 214.7C-62.5 205 -71.7 183.7 -82.9 172.2C-94.1 160.7 -107.3 159.1 -124.8 156.5C-142.2 153.9 -164 150.4 -171.6 136.8C-179.1 123.2 -172.6 99.6 -171.1 82.4C-169.6 65.1 -173.1 54.2 -182.2 41.6C-191.2 28.9 -205.7 14.5 -220.2 0L0 0Z" fill="#cdb985"></path><path d="M0 146.8C-11.8 148.2 -23.7 149.5 -32.7 143.1C-41.7 136.7 -47.8 122.5 -55.3 114.8C-62.8 107.1 -71.6 106 -83.2 104.3C-94.8 102.6 -109.3 100.3 -114.4 91.2C-119.4 82.2 -115 66.4 -114 54.9C-113 43.4 -115.4 36.2 -121.4 27.7C-127.5 19.3 -137.1 9.6 -146.8 0L0 0Z" fill="#dca277"></path><path d="M0 73.4C-5.9 74.1 -11.8 74.8 -16.3 71.6C-20.8 68.3 -23.9 61.2 -27.6 57.4C-31.4 53.6 -35.8 53 -41.6 52.2C-47.4 51.3 -54.7 50.1 -57.2 45.6C-59.7 41.1 -57.5 33.2 -57 27.5C-56.5 21.7 -57.7 18.1 -60.7 13.9C-63.7 9.6 -68.6 4.8 -73.4 0L0 0Z" fill="#e29578"></path></g><g transform="translate(0, 600)"><path d="M0 -513.8C40.1 -512.9 80.3 -511.9 112.2 -491.4C144 -470.8 167.7 -430.6 197.9 -410.8C228 -391.1 264.7 -391.8 305.5 -383.1C346.4 -374.4 391.4 -356.2 400.3 -319.2C409.2 -282.3 381.9 -226.6 398.2 -191.8C414.5 -156.9 474.4 -142.8 500.9 -114.3C527.4 -85.8 520.6 -42.9 513.8 0L0 0Z" fill="#dff1f4"></path><path d="M0 -440.4C34.4 -439.6 68.8 -438.8 96.1 -421.2C123.5 -403.5 143.7 -369.1 169.6 -352.2C195.4 -335.2 226.9 -335.9 261.9 -328.4C296.9 -320.9 335.5 -305.3 343.1 -273.6C350.7 -242 327.4 -194.3 341.3 -164.4C355.3 -134.5 406.6 -122.4 429.4 -98C452.1 -73.6 446.2 -36.8 440.4 0L0 0Z" fill="#c7e8e1"></path><path d="M0 -367C28.7 -366.3 57.3 -365.7 80.1 -351C102.9 -336.3 119.8 -307.6 141.3 -293.5C162.9 -279.4 189 -279.9 218.2 -273.6C247.4 -267.4 279.6 -254.4 285.9 -228C292.3 -201.6 272.8 -161.9 284.4 -137C296.1 -112.1 338.8 -102 357.8 -81.7C376.7 -61.3 371.9 -30.7 367 0L0 0Z" fill="#bbdcc3"></path><path d="M0 -293.6C22.9 -293.1 45.9 -292.5 64.1 -280.8C82.3 -269 95.8 -246 113.1 -234.8C130.3 -223.5 151.2 -223.9 174.6 -218.9C197.9 -213.9 223.7 -203.5 228.7 -182.4C233.8 -161.3 218.2 -129.5 227.6 -109.6C236.9 -89.7 271.1 -81.6 286.2 -65.3C301.4 -49 297.5 -24.5 293.6 0L0 0Z" fill="#bfcda2"></path><path d="M0 -220.2C17.2 -219.8 34.4 -219.4 48.1 -210.6C61.7 -201.8 71.9 -184.5 84.8 -176.1C97.7 -167.6 113.4 -167.9 130.9 -164.2C148.4 -160.4 167.7 -152.6 171.6 -136.8C175.4 -121 163.7 -97.1 170.7 -82.2C177.7 -67.2 203.3 -61.2 214.7 -49C226 -36.8 223.1 -18.4 220.2 0L0 0Z" fill="#cdb985"></path><path d="M0 -146.8C11.5 -146.5 22.9 -146.3 32 -140.4C41.2 -134.5 47.9 -123 56.5 -117.4C65.1 -111.7 75.6 -112 87.3 -109.5C99 -107 111.8 -101.8 114.4 -91.2C116.9 -80.7 109.1 -64.8 113.8 -54.8C118.4 -44.8 135.5 -40.8 143.1 -32.7C150.7 -24.5 148.7 -12.3 146.8 0L0 0Z" fill="#dca277"></path><path d="M0 -73.4C5.7 -73.3 11.5 -73.1 16 -70.2C20.6 -67.3 24 -61.5 28.3 -58.7C32.6 -55.9 37.8 -56 43.6 -54.7C49.5 -53.5 55.9 -50.9 57.2 -45.6C58.5 -40.3 54.6 -32.4 56.9 -27.4C59.2 -22.4 67.8 -20.4 71.6 -16.3C75.3 -12.3 74.4 -6.1 73.4 0L0 0Z" fill="#e29578"></path></g></svg>