<svg xmlns="http://www.w3.org/2000/svg" viewBox="0 0 500 500"><g id="freepik--background-complete--inject-14"><rect x="53.73" y="218.21" width="26.48" height="11.19" style="fill:#ebebeb"></rect><rect x="38.96" y="232.32" width="26.48" height="11.19" style="fill:#ebebeb"></rect><rect x="68.5" y="232.32" width="26.48" height="11.19" style="fill:#ebebeb"></rect><rect x="419.79" y="232.32" width="26.48" height="11.19" style="fill:#ebebeb"></rect><rect x="419.79" y="73.88" width="26.48" height="11.19" style="fill:#ebebeb"></rect><rect x="434.56" y="87.99" width="26.48" height="11.19" style="fill:#ebebeb"></rect><rect x="38.96" y="73.9" width="26.48" height="11.19" style="fill:#ebebeb"></rect><rect x="182.11" y="324.97" width="26.48" height="11.19" transform="translate(390.7 661.12) rotate(180)" style="fill:#ebebeb"></rect><rect x="196.88" y="310.86" width="26.48" height="11.19" transform="translate(420.25 632.9) rotate(180)" style="fill:#ebebeb"></rect><rect x="80.45" width="1" height="138.27" style="fill:#c7c7c7"></rect><polygon points="122.35 178.17 119.02 185.49 42.87 185.49 39.55 178.17 71.97 155.73 89.93 155.73 122.35 178.17" style="fill:#ebebeb"></polygon><polygon points="92.18 134.11 89.93 155.73 71.97 155.73 69.72 134.11 92.18 134.11" style="fill:#dbdbdb"></polygon><polygon points="122.35 178.18 119.02 185.5 42.87 185.5 39.55 178.18 122.35 178.18" style="fill:#dbdbdb"></polygon><rect x="163.92" width="1" height="95.61" style="fill:#c7c7c7"></rect><polygon points="205.82 135.52 202.49 142.84 126.34 142.84 123.02 135.52 155.44 113.08 173.4 113.08 205.82 135.52" style="fill:#ebebeb"></polygon><polygon points="175.65 91.46 173.4 113.08 155.44 113.08 153.19 91.46 175.65 91.46" style="fill:#dbdbdb"></polygon><polygon points="205.81 135.52 202.48 142.84 126.33 142.84 123.01 135.52 205.81 135.52" style="fill:#dbdbdb"></polygon></g><g id="freepik--Shadow--inject-14"><ellipse cx="250" cy="447.09" rx="212.31" ry="27.26" style="fill:#ebebeb"></ellipse></g><g id="freepik--Floor--inject-14"><polygon points="31.2 408 85.65 407.76 140.1 407.67 249 407.51 357.9 407.67 412.35 407.76 466.8 408 412.35 408.25 357.9 408.34 249 408.5 140.1 408.34 85.65 408.25 31.2 408" style="fill:#263238"></polygon></g><g id="freepik--Plant--inject-14"><path d="M416.16,235.7s-24.19-3.39-18.54-32.59C397.62,203.11,424.65,209.18,416.16,235.7Z" style="fill:#E0BE36"></path><path d="M416.16,235.7s-24.19-3.39-18.54-32.59C397.62,203.11,424.65,209.18,416.16,235.7Z" style="opacity:0.1"></path><path d="M414.93,229.6c-.47-1.48-1-2.93-1.64-4.35,0-.19-.05-.37-.07-.55,0-.4-.06-.81-.1-1.21-.06-.87-.12-1.74-.17-2.61-.1-1.75-.21-3.49-.24-5.24,0-.1-.15-.09-.15,0,0,1.75,0,3.5,0,5.25,0,.87.08,1.74.14,2.61,0,.19,0,.39,0,.58a51.64,51.64,0,0,0-4.85-8.29c-.83-1.16-1.7-2.28-2.64-3.35s-2-2.16-3-3.25c-.06-.07-.17,0-.1.11a42.66,42.66,0,0,1,4.66,6.19c.73,1.12,1.43,2.26,2.09,3.42l-.23-.09-.86-.35-2-.75c-1.3-.48-2.6-.95-3.89-1.44-.08,0-.14.1-.06.13,1.29.52,2.56,1.06,3.83,1.61l1.87.8.95.39a3.07,3.07,0,0,0,.64.23c.49.87,1,1.75,1.42,2.65a62.74,62.74,0,0,1,2.95,7l.18.5a14.54,14.54,0,0,0-2-1c-.83-.38-1.67-.75-2.5-1.14-1.69-.78-3.38-1.57-5-2.49-.08,0-.15.09-.07.13,1.66.91,3.29,1.88,5,2.78.83.45,1.67.89,2.52,1.3a7.66,7.66,0,0,0,2.27.91,29,29,0,0,1,1.59,6.86c.27,3.31.24,6.64.31,9.94a0,0,0,1,0,.09,0c.24-3,.38-6,.39-9A26.35,26.35,0,0,0,414.93,229.6Z" style="fill:#263238"></path><path d="M411.21,212.43a28.63,28.63,0,0,0-.24,5.15,0,0,0,1,0,.07,0c.1-1.71.12-3.41.31-5.11C411.36,212.37,411.22,212.34,411.21,212.43Z" style="fill:#263238"></path><path d="M404.29,213.89a18.31,18.31,0,0,1-3.11-1.53c-.08-.05-.15.08-.07.13a11.63,11.63,0,0,0,3.14,1.5A.05.05,0,0,0,404.29,213.89Z" style="fill:#263238"></path><path d="M416.93,282.05c0-2.67-.07-5.35-.1-8-.05-8.87-.13-17.75-.29-26.63q-.18-10.56-.49-21.13a.11.11,0,0,0-.06-.09l0-5.77s-.06-.08-.11-.08-.12,0-.12.08c0,1.93,0,3.85,0,5.78a.1.1,0,0,0-.05.08c-.36,12.54-.67,25.09-.75,37.63,0,2.55,0,5.1,0,7.65q-.14,12.27-.1,24.53l0,3.91c0,7.48.08,15,.08,22.45,0,.4.45.6.93.62s1.12-.2,1.12-.66c0-8.25.05-16.5.05-24.75C417,292.45,417,287.25,416.93,282.05Z" style="fill:#263238"></path><path d="M406.83,273.93s-11.64-8.62-22.68-2.8-12.77,28.28-12.77,28.28,16.21,2.32,26.42-7.4C407.64,282.64,406.83,273.93,406.83,273.93Z" style="fill:#E0BE36"></path><path d="M410,274.46a14,14,0,0,0-6.74-.88,11.35,11.35,0,0,0-1.43-.14l-1.64-.12-3.39-.24c-2.29-.17-4.59-.31-6.88-.54a.07.07,0,0,0,0,.14c2.27.29,4.52.62,6.8.85,1.17.11,2.34.23,3.51.32l.85.08c-.35.08-.7.16-1,.26a26.81,26.81,0,0,0-5.28,2.14c-.91.16-1.82.42-2.72.63-1.44.34-2.87.71-4.3,1.09-2.83.74-5.63,1.57-8.43,2.38a.08.08,0,0,0,0,.15c2.81-.69,5.62-1.32,8.43-2,1.36-.32,2.73-.64,4.09-1l1.07-.25a34.35,34.35,0,0,0-8.27,7.19,45.44,45.44,0,0,0-5.75,9.07c0,.08.08.16.13.08a43.83,43.83,0,0,1,6.95-9.13l-.15.46-.65,2.06c-.43,1.37-.86,2.74-1.27,4.11a.07.07,0,1,0,.14,0c.49-1.33,1-2.66,1.43-4l.69-2c.12-.34.23-.68.34-1l.12-.31a40.22,40.22,0,0,1,4.12-3.51,31.3,31.3,0,0,1,6.18-3.54l-.12.59c-.11.53-.23,1.06-.34,1.59-.23,1.1-.44,2.21-.66,3.31-.44,2.25-.71,4.53-1.13,6.79a.07.07,0,0,0,.14,0c.52-2.26,1.2-4.49,1.7-6.76.25-1.14.51-2.27.75-3.41.11-.53.21-1.06.32-1.59.06-.3.13-.6.16-.89.21-.09.42-.19.63-.26,3.06-1.13,6.43-2,9.68-1.33a9.52,9.52,0,0,1,7,5.61c.1.25.5.1.44-.16A9,9,0,0,0,410,274.46Z" style="fill:#263238"></path><path d="M392.19,284.05c-.33,1.47-.66,2.95-1,4.42a33.26,33.26,0,0,0-.82,4.3c0,.06.08.06.1,0a34.86,34.86,0,0,0,1-4.33c.28-1.46.57-2.91.85-4.37A.07.07,0,0,0,392.19,284.05Z" style="fill:#263238"></path><path d="M380.94,287.8c-1.48.75-2.92,1.6-4.47,2.22-.09,0,0,.18.06.13a45.46,45.46,0,0,0,4.44-2.3S381,287.78,380.94,287.8Z" style="fill:#263238"></path><path d="M409.44,258.1s-14.21.91-20.83-8.47-5.13-22.76-5.13-22.76,14.94,1.81,20.87,8.54S409.44,258.1,409.44,258.1Z" style="fill:#E0BE36"></path><path d="M416.12,272.13c-.5-1.52-1.11-3-1.68-4.52s-1.14-2.85-1.77-4.26a91.56,91.56,0,0,0-4.26-8.38c-1-1.72-2.08-3.4-3.19-5.05,0-.25-.07-.51-.11-.76-.06-.44-.13-.88-.2-1.32-.14-.9-.29-1.8-.44-2.7-.33-2-.74-3.91-1.05-5.88,0-.09-.16-.09-.15,0,.29,1.94.48,3.89.76,5.83.13,1,.25,1.91.4,2.86.05.35.11.69.16,1a102.91,102.91,0,0,0-7-9.12c-.34-.39-.69-.77-1-1.16,0-.11-.09-.22-.13-.33-.11-.27-.21-.54-.31-.81-.21-.56-.41-1.13-.62-1.7-.4-1.11-.75-2.23-1.06-3.38,0-.09-.16-.05-.14,0,.29,1.16.59,2.33.93,3.48.17.56.35,1.11.55,1.65,0,.1.07.19.1.28-1.82-2-3.71-3.89-5.63-5.78-.07-.07-.17,0-.1.11a100.23,100.23,0,0,1,10.07,12.34,9.51,9.51,0,0,0-1.05-.27c-1.09-.21-2.2-.37-3.3-.51-2.32-.29-4.63-.58-6.94-1-.09,0-.13.13,0,.15,2.2.43,4.38.93,6.57,1.43,1,.24,2.07.44,3.11.64a21,21,0,0,1,2.5.71l.69,1c1,1.52,2,3.07,3,4.63l-1.45-.29c-1.1-.21-2.21-.41-3.31-.59-2.17-.36-4.34-.73-6.48-1.22-.09,0-.13.12,0,.14,2.18.51,4.33,1.11,6.49,1.68,1,.28,2.09.54,3.14.77l1.58.34a4.09,4.09,0,0,0,.64.11q3.12,5.06,5.83,10.33c.8,1.55,1.56,3.11,2.3,4.68s1.41,3.27,2.11,4.9C415.71,272.62,416.23,272.49,416.12,272.13Z" style="fill:#263238"></path><path d="M401.56,239.45c-.27-1.35-.55-2.71-.85-4.06,0-.09-.16,0-.15.05.27,1.33.53,2.66.77,4a37.91,37.91,0,0,0,.81,4s0,0,0,0A28.24,28.24,0,0,0,401.56,239.45Z" style="fill:#263238"></path><path d="M393.27,239.06c-.66-.33-1.36-.6-2-.86l-1.08-.43-.55-.22a2.14,2.14,0,0,1-.6-.26c-.11-.08-.18.11-.07.13a2.45,2.45,0,0,1,.61.25l.54.24,1,.46a20.81,20.81,0,0,0,2.1.83A.08.08,0,0,0,393.27,239.06Z" style="fill:#263238"></path><path d="M424,246.92s8.6-16.07,21.69-18.56,21.11,11,21.11,11-9.55,12.19-21.57,14.32S424,246.92,424,246.92Z" style="fill:#E0BE36"></path><path d="M454.47,235.56a35.71,35.71,0,0,0-10.27.12l.58-.31c1-.49,1.94-1,2.91-1.5,2-1,4-2.15,6.14-3a.07.07,0,1,0-.06-.13c-2,.95-4.17,1.75-6.22,2.7-1,.47-2,1-3,1.49-.64.34-1.36.67-2,1.08a36,36,0,0,0-8.32,2.76l1.63-1.78c1.22-1.34,2.42-2.74,3.76-4,.07-.06,0-.16-.1-.1-1.37,1.25-2.82,2.4-4.15,3.69q-1,.94-1.86,1.95c-.3.33-.6.68-.89,1A34.49,34.49,0,0,0,415,263.3c0,.09.12.14.14.05a39.47,39.47,0,0,1,9.63-16.28,37.83,37.83,0,0,1,17.53-10.15,38.31,38.31,0,0,1,12.11-1.1A.13.13,0,0,0,454.47,235.56Z" style="fill:#263238"></path><path d="M466.8,239.34s-9.55,12.2-21.57,14.32c-9.16,1.63-16.7-3.15-19.76-5.51l-.66-1.08s6.2-5.23,17.92-8.24S466.8,239.34,466.8,239.34Z" style="opacity:0.1"></path><path d="M446.86,229.83a33.07,33.07,0,0,0-2.9,1.92,19.11,19.11,0,0,0-2.53,2.31.08.08,0,0,0,.11.11c.87-.76,1.75-1.51,2.65-2.23a28.17,28.17,0,0,1,2.75-2A.08.08,0,0,0,446.86,229.83Z" style="fill:#263238"></path><path d="M454.05,232.55l-1.47.58-1.45.61c-.11,0-.06.21.05.16l1.46-.59,1.45-.62C454.18,232.66,454.14,232.52,454.05,232.55Z" style="fill:#263238"></path><path d="M422.28,267.15s2.3,15.94,14.29,21.52,26.61,0,26.61,0S457.43,254.17,422.28,267.15Z" style="fill:#E0BE36"></path><path d="M454.91,278.3c-1.1-.13-2.2-.31-3.3-.51l-1.61-.31-.84-.17c-.32-.3-.64-.61-1-.9a48.34,48.34,0,0,0-7.33-5.31,40.57,40.57,0,0,0-4.4-2.26h.23l3.95.17c2.63.12,5.26.18,7.89.35.09,0,.09-.14,0-.15-2.64-.18-5.26-.47-7.9-.69l-3.83-.34-2-.18-.5-.05c-.69-.25-1.38-.5-2.07-.71a18.7,18.7,0,0,0-10.16-.56c-3,.77-6,2.75-6.81,5.93,0,.11.15.18.2.07,1.12-2.66,4.07-4,6.73-4.55a16,16,0,0,1,5.43-.1,13.09,13.09,0,0,0,.61,2.41c.33,1.12.66,2.24,1,3.36.68,2.24,1.42,4.46,2.09,6.7,0,.1.16.05.14,0-.56-2.24-1-4.49-1.57-6.74-.26-1.1-.54-2.19-.81-3.29a18.24,18.24,0,0,0-.61-2.27,27.19,27.19,0,0,1,3.12.73,47.16,47.16,0,0,1,5.43,2c.17,1.14.43,2.27.69,3.39.33,1.4.69,2.8,1.14,4.17a.07.07,0,1,0,.13,0c0-.08,0-.17-.05-.26h0c-.27-1.3-.56-2.6-.84-3.91-.22-1.05-.42-2.1-.65-3.15,1.49.67,3,1.4,4.37,2.21,0,.33.11.66.16,1,.08.54.18,1.09.28,1.63.23,1.23.47,2.46.77,3.68a57.44,57.44,0,0,0,2.06,6.93.08.08,0,0,0,0,.09l.07.08c0,.06.14,0,.12-.07-.55-2.37-1.19-4.71-1.71-7.08-.26-1.18-.52-2.37-.75-3.56-.12-.59-.23-1.19-.34-1.78,0-.17-.06-.35-.09-.54a50.91,50.91,0,0,1,11.82,9.64c.08.1.25,0,.17-.14-.91-1.2-1.82-2.38-2.85-3.49-.61-.64-1.23-1.27-1.87-1.88l.2,0,1.69.25c1.11.15,2.22.26,3.33.38C455,278.45,455,278.31,454.91,278.3Z" style="fill:#263238"></path><path d="M446.49,283.71h0c0-.13,0-.27-.07-.41s-.12-.34-.15-.52h0c-.25-1.06-.45-2.13-.65-3.21,0-.08-.13-.05-.13,0a12.94,12.94,0,0,0,.92,4.16s.09,0,.08,0Z" style="fill:#263238"></path><path d="M436.45,283.45a.07.07,0,0,0-.07-.07c-.33-1.41-.66-2.82-.95-4.24-.15-.75-.31-1.5-.45-2.25-.08-.4-.15-.8-.23-1.21a3.68,3.68,0,0,0-.25-1,.08.08,0,0,0-.14,0,7.14,7.14,0,0,0,.3,2.14c.15.77.3,1.55.47,2.32.35,1.58.74,3.14,1.19,4.69a.08.08,0,0,0,.16,0Z" style="fill:#263238"></path><path d="M453.82,273.71c-2.19-.3-4.38-.62-6.57-.89-.09,0-.13.13,0,.15,2.19.32,4.38.59,6.58.88C453.88,273.86,453.92,273.72,453.82,273.71Z" style="fill:#263238"></path><path d="M416.14,229.75s-7.34-32.18,27.24-45.21C443.38,184.54,453,226.91,416.14,229.75Z" style="fill:#E0BE36"></path><path d="M423.6,211.5l.37-.23,2-1.09,4-2.24c2.64-1.48,5.24-3,7.9-4.46.09,0,0-.17-.08-.12-2.66,1.44-5.37,2.8-8.05,4.21l-4,2.1-1.62.86c1.15-2.19,2.39-4.34,3.74-6.4,1.81-2.76,3.79-5.39,5.85-8a.12.12,0,0,0-.17-.16,55.44,55.44,0,0,0-8,9.8c0-.11,0-.22,0-.33,0-.8.05-1.6.07-2.4,0-1.57-.06-3.15,0-4.72,0-.09-.14-.09-.15,0-.06,1.54-.25,3.08-.33,4.63,0,.77-.08,1.54-.1,2.31,0,.42-.06.9,0,1.35-.71,1.14-1.4,2.29-2,3.45a59.31,59.31,0,0,0-3.1,6.48c0-.8-.08-1.6-.13-2.4-.1-1.76-.31-3.52-.39-5.28a.08.08,0,0,0-.15,0c0,1.77,0,3.53,0,5.29,0,.88.06,1.77.12,2.65,0,.32,0,.65.06,1a58.42,58.42,0,0,0-2.62,8.84,96.83,96.83,0,0,0-1.28,9.72s0,0,0,0a53.38,53.38,0,0,1,1.84-8.66c.43-1.52.88-3,1.36-4.53,1.44-.68,2.82-1.53,4.21-2.3s2.9-1.58,4.34-2.37c2.89-1.58,5.77-3.2,8.74-4.59.09,0,0-.17-.07-.13-3,1.37-6.06,2.67-9,4.15-1.47.74-2.92,1.53-4.36,2.34-1.2.68-2.43,1.36-3.58,2.14.34-1,.68-2,1.07-3A86.77,86.77,0,0,1,423.6,211.5Z" style="fill:#263238"></path><path d="M420.69,204.14c0-.09-.16-.09-.15,0,.12,1.84.19,3.68.38,5.51,0,.1.17.1.16,0C421,207.8,420.82,206,420.69,204.14Z" style="fill:#263238"></path><path d="M437.27,210.29c-2.17.87-4.35,1.7-6.5,2.6a.05.05,0,0,0,0,.1c2.18-.82,4.34-1.71,6.51-2.56C437.4,210.39,437.36,210.25,437.27,210.29Z" style="fill:#263238"></path><path d="M440.55,195.44a58.67,58.67,0,0,0-6.15,3.3c-.1.06,0,.22.1.16,2-1.17,4.05-2.3,6.13-3.33C440.72,195.53,440.64,195.4,440.55,195.44Z" style="fill:#263238"></path><rect x="390.16" y="299.36" width="49.87" height="52.57" style="fill:#37474f"></rect><rect x="386.73" y="317.96" width="2.55" height="90.05" style="fill:#263238"></rect><rect x="440.64" y="317.96" width="2.55" height="90.05" style="fill:#263238"></rect><rect x="415.04" y="317.96" width="2.55" height="90.05" style="fill:#263238"></rect><rect x="388" y="348.56" width="53.92" height="7.28" style="fill:#263238"></rect></g><g id="freepik--Suitcase--inject-14"><rect x="92.73" y="243.62" width="6.61" height="159.92" style="fill:#dbdbdb"></rect><rect x="90.47" y="240.21" width="8.95" height="9.98" style="fill:#c7c7c7"></rect><path d="M100.64,435.77l-62.09-.06L38.67,307a12,12,0,0,1,12-12l50.07,0Z" style="fill:#E0BE36"></path><polygon points="100.76 297.69 100.64 435.77 72.59 435.74 100.76 297.69" style="opacity:0.1"></polygon><rect x="67.05" y="294.64" width="3.2" height="141.45" style="fill:#263238"></rect><rect x="71.06" y="294.65" width="3.2" height="141.45" style="fill:#263238"></rect><rect x="77.45" y="346.23" width="6.84" height="38.28" style="fill:#263238"></rect><rect x="77.45" y="322.48" width="6.84" height="17.01" style="fill:#263238"></rect><path d="M38.56,423.76c0,3.33,6.69,4.66,12.68,4.66s2.16,7.31,5.15,7.31l-17.84,0Z" style="fill:#263238"></path><path d="M100.65,423.79c0,3.33-6.73,4.63-12.72,4.63s-2.16,7.31-5.15,7.31l17.86,0Z" style="fill:#263238"></path><rect x="43.84" y="435.77" width="7.48" height="14.43" style="fill:#263238"></rect><rect x="87.85" y="435.77" width="7.48" height="14.43" style="fill:#263238"></rect></g><g id="freepik--Character--inject-14"><path d="M107.28,283.36C91.05,295.08,84.41,318.46,97,341.79c11.42,21.22,38.4,30.82,53.08,24,15.58-7.28,18.86-25.51,10.59-35.5-8-9.65-19.88-11.65-23.87-20.77-1.91-4.36-1-12.37-3.56-18.93C130.36,283.22,117.71,275.83,107.28,283.36Z" style="fill:#263238"></path><path d="M133.9,368.81a48.5,48.5,0,0,1-22.73-8.64A53.59,53.59,0,0,1,95,341.81,44.52,44.52,0,0,1,96.52,295a47.87,47.87,0,0,0-6.65,23.15,44.47,44.47,0,0,0,1.47,12,49.28,49.28,0,0,0,4.54,11.2,58.84,58.84,0,0,0,6.85,10,52.27,52.27,0,0,0,19.47,14.16A46.6,46.6,0,0,0,133.9,368.81Z" style="fill:#263238"></path><path d="M163.36,332.42a24,24,0,0,0-4.57-6,32.08,32.08,0,0,0-5.95-4.56q-3.27-1.92-6.44-4.06a32.86,32.86,0,0,1-5.87-4.94,21.79,21.79,0,0,1-2.37-3.07,14.72,14.72,0,0,1-1.49-3.61,62,62,0,0,1-1.34-7.51,29.46,29.46,0,0,0-1.9-7.25,20.79,20.79,0,0,0-4.12-6.27,19.64,19.64,0,0,1,4.55,6.08,29.8,29.8,0,0,1,2.21,7.31c.49,2.49.77,5,1.46,7.39a13.65,13.65,0,0,0,1.44,3.37,19.5,19.5,0,0,0,2.29,2.89c3.34,3.7,7.77,6.26,12,9a32.46,32.46,0,0,1,5.9,4.87A22.43,22.43,0,0,1,163.36,332.42Z" style="fill:#263238"></path><path d="M176.22,291.27l-7.33,33.56c-.33,1,.19,1.77,1.15,1.74l17.18-.55a2.8,2.8,0,0,0,2.33-1.84l7.33-33.57c.33-1-.19-1.77-1.15-1.74l-17.18.55A2.79,2.79,0,0,0,176.22,291.27Z" style="fill:#a6a6a6"></path><path d="M178.26,291.18l-7.33,33.57c-.33,1,.19,1.77,1.15,1.74l17.18-.55a2.79,2.79,0,0,0,2.33-1.85l7.33-33.56c.33-1-.19-1.77-1.15-1.74l-17.18.55A2.78,2.78,0,0,0,178.26,291.18Z" style="fill:#c7c7c7"></path><path d="M183,292.56a1.46,1.46,0,1,1-1.48-1.45A1.46,1.46,0,0,1,183,292.56Z" style="fill:#263238"></path><path d="M122.43,344.3c10.2,20.49,32.66,46.89,41.69,46.8,4.3,0,12,.81,17.53-4.26,12.06-11.06,21.88-31.91,23.71-43.76.65-4.21-20-12.84-22.92-9.35-6.87,8.17-14.72,24.06-16,24-4.63-.24-23.06-14.89-35.92-25.2C114.92,320,118.37,336.13,122.43,344.3Z" style="fill:#ad6359"></path><path d="M205.37,321.38c-2.36-8.47-4.26-10.29-2.45-18.49,1.18-5.39-1.75-8.46-5.44-4.07-6,7.17-5.31,18.74-3.89,22.67Z" style="fill:#ad6359"></path><path d="M204.45,346.76s3.53-12,1.91-21.24c-1.12-6.41-5.11-20.1-23.3-26.95-4.31-1.63-11.61-.89-5.53,4.33,4.32,3.7,8.18,4.75,10.3,7.36,0,0-9.17,2-10.63,6.43a83.94,83.94,0,0,0-3,11.73,17.3,17.3,0,0,0,2.14.76s-1,4.23,2.21,10Z" style="fill:#ad6359"></path><path d="M204.32,319.57c-2.66-2.15-8.36-6.61-14.29-8.63-6.58-2.25-19.88-4.81-21.49.07-1.18,3.58,3.81,5,3.81,5s-5.72.1-6.08,3.57c-.32,3.16,3.6,4,3.6,4s-3.45.65-3.18,3.76c.32,3.73,7.51,1.74,11.11,5.23C178.61,333.39,204.32,319.57,204.32,319.57Z" style="fill:#ad6359"></path><path d="M188.82,318.3a27.67,27.67,0,0,0-16.36-2.38c-.14,0-.19.14-.06.15a67.85,67.85,0,0,1,16.4,2.29S188.85,318.31,188.82,318.3Z" style="fill:#263238"></path><path d="M186.35,324.88c-2.58-1.14-10.25-2.87-16.47-1.4-.14,0-.18.16,0,.15a73.66,73.66,0,0,1,16.51,1.31S186.39,324.89,186.35,324.88Z" style="fill:#263238"></path><path d="M131.81,362.89l17-17.8s-12.69-11.58-22-16.1-10.83,1.53-7,10.84S131.81,362.89,131.81,362.89Z" style="fill:#ebebeb"></path><path d="M128.05,329.64h-9.87a3.49,3.49,0,0,1,.54-1h7.33l.73.34C127.2,329.19,127.62,329.41,128.05,329.64Zm3.39,2H117.83q0,.47,0,1H133Q132.21,332.11,131.44,331.63Zm4.39,3H118.14c.06.32.14.65.23,1h18.82Zm4,3H119c.11.33.22.65.35,1H141C140.64,338.23,140.22,337.9,139.79,337.57Zm3.69,3H120.11l.43,1h24.13Zm3.52,3H121.43l.48,1h26.22Zm-24.13,3c.17.33.33.67.5,1H146.5l.95-1Zm1.51,3,.51,1h18.78l.94-1Zm1.57,3c.17.33.35.66.53,1h14.36l.94-1Zm1.6,3,.55,1H138l.94-1Zm1.67,3c.19.35.37.68.55,1h5.41l.94-1Zm1.69,3,.57,1h.85l1-1Z" style="fill:#dbdbdb"></path><path d="M143.7,342.36A155.22,155.22,0,0,0,129,357.23s.09.15.12.12c4.24-3.81,12.1-12,14.71-14.81C143.91,342.48,143.75,342.31,143.7,342.36Z" style="fill:#263238"></path><path d="M381.5,448.08c-2.6,1-78.32,2.38-81.29.69-.32-.19-.23-3.53-1.35-12.18-.05-.41-1.78-2-4.47-4.28-10.13-8.48-33.93-26.38-33.93-26.38l37.79-32.83,36.62,36,9.53,9.36s30.93,16.7,34,18.91S384.11,447.08,381.5,448.08Z" style="fill:#ad6359"></path><path d="M381.5,448.08c-2.6,1-78.32,2.38-81.29.69-.32-.19-.23-3.53-1.34-12.18,11.89,1.89,65,2.89,70.42.73,4.88-1.95-4.44-7.64-6.4-8.78,7.24,4,14.15,7.84,15.51,8.83C381.44,439.58,384.11,447.08,381.5,448.08Z" style="fill:#E0BE36"></path><path d="M326.8,396.5l-40.19,35.64s-41.89-42.58-50.53-42.92c-4.33-.17-73.66,38.55-106.45,41.93C106.39,433.55,92.16,404,92.16,404l51.41-19.88c35.89-17.7,76.33-49.47,100.78-46.5C270.91,340.82,326.8,396.5,326.8,396.5Z" style="fill:#37474f"></path><path d="M314,391.41c-6.57,5.84-4.76,4.08-11.27,10-3.19,2.89-19.24,17.4-21.76,20.59-.06.07,0,.18.11.13,3.38-2.27,19.12-17.12,22.25-20.07,6.4-6,4.5-4.36,10.84-10.46A.12.12,0,1,0,314,391.41Z" style="fill:#263238"></path><path d="M280.41,420.14c-9.13-8.06-39.05-34.27-40.27-35.24a16,16,0,0,0-3.11-2.34,3.32,3.32,0,0,0-2.88.23c-1.39.65-2.74,1.36-4.11,2l-8.1,3.95c-10.46,5.11-20.87,10.35-31.41,15.29a316.73,316.73,0,0,1-31,12.87A159.16,159.16,0,0,1,127,424.68c-1.36.16-2.73.31-4.1.43-.1,0-.1.16,0,.16a130.44,130.44,0,0,0,32-5.95,245.85,245.85,0,0,0,30.63-12c10.33-4.75,20.51-9.83,30.69-14.89,5.37-2.67,10.74-5.37,16.13-8,1.22-.6,3-1.9,4.35-1.25a7.47,7.47,0,0,1,1.62,1.18l1.79,1.49c2.31,1.93,39,33.52,40.19,34.43C280.38,420.33,280.5,420.21,280.41,420.14Z" style="fill:#263238"></path><path d="M235.93,389.23c-5.56.59-73.84,38.56-106.3,41.92C106.39,433.55,92.16,404,92.16,404l17.58-6.8Z" style="fill:#263238"></path><path d="M93.77,395.53s-5.58,32.29,10.56,45,134.45,11.16,152.4,5.36,18.51-34.77-1.11-41.48c-18.66-6.39-98.06-9.49-100-10.27-.49-.2,7-4.71,7-5l-18.06-5.52Z" style="fill:#37474f"></path><path d="M118.28,394.72c0-.14-.24-.1-.24,0A15.91,15.91,0,0,1,114.31,405c-2.75,3.18-6.8,4.95-10.47,6.81-.36.18-.09.73.28.62a32.58,32.58,0,0,0,6.48-2.79,15.82,15.82,0,0,0,4.88-4.06A13.94,13.94,0,0,0,118.28,394.72Z" style="fill:#263238"></path><path d="M154.3,390.71c-.82-1-1.72-2-2.57-3.06-2-2.4-4.06-4.82-6.17-7.14-.21-.22-.6.09-.41.33,1.42,1.87,2.93,3.67,4.42,5.49.76.94,1.53,1.87,2.3,2.79a17.9,17.9,0,0,1,2.14,2.72c.55,1-.17,1.92-1.25,2a3.66,3.66,0,0,1-2.58-.95,34.09,34.09,0,0,1-4.38-4.68c-.85-1-1.7-1.91-2.57-2.86s-1.9-2-2.81-3c-.06-.07-.18,0-.12.09.8,1.1,1.54,2.25,2.34,3.35s1.62,2.19,2.45,3.27,1.59,2,2.43,3a9.94,9.94,0,0,0,2.46,2.2c1.54.91,4.2,1.1,5-.88A2.82,2.82,0,0,0,154.3,390.71Z" style="fill:#263238"></path><path d="M254.28,446c-6.18.11-12.36.47-18.54.6s-12.26.17-18.4.11q-18.47-.18-36.91-1.44c-12.41-.85-25.81-2.09-38.14-3.8-5.9-.82-11.88-1.5-17.71-2.75a27.94,27.94,0,0,1-14-7.14c-8-7.75-11.09-19.14-12.37-30-.17-1.46-.31-2.92-.43-4.39a.08.08,0,1,0-.15,0c.72,11.15,2.46,22.79,9.48,31.76a27.89,27.89,0,0,0,11.43,8.88c5.52,2.21,11.65,2.73,17.48,3.52,12.39,1.68,25.83,3,38.29,3.94S199.42,446.84,212,447s25.14,0,37.7-.61c1.53-.07,3.06-.16,4.59-.29C254.37,446.11,254.36,446,254.28,446Z" style="fill:#263238"></path><path d="M215.31,398.5c-3.89-.57-7.77-1.13-11.68-1.53s-7.91-.77-11.87-1.1c-7.82-.67-15.67-1.26-23.52-1.63-4.45-.21-8.91-.23-13.37-.17-.15,0-.13.2,0,.22,7.85.71,15.7,1.2,23.56,1.72s15.67,1.21,23.5,2c4.43.42,8.87.75,13.32,1.11C215.57,399.11,215.64,398.55,215.31,398.5Z" style="fill:#263238"></path><path d="M163.53,388.74a60.42,60.42,0,0,0-9,4.82,73.11,73.11,0,0,0-8.33,5.83c-.08.07,0,.16.09.12,3.06-1.41,6-3.18,8.91-4.87a86.48,86.48,0,0,0,8.53-5.48C163.91,389,163.79,388.63,163.53,388.74Z" style="fill:#263238"></path><path d="M144.27,450.9l53.17-.16c14.37,0,12-11.53,8.55-23.58s-8.64-30.33-21.49-30.29l-13.8,0-13.81,0c-12.84,0-17.89,18.34-21.3,30.42S129.9,450.94,144.27,450.9Z" style="fill:#E0BE36"></path><path d="M186.56,396.9a.55.55,0,0,1,.55.54.56.56,0,0,1-.55.56.55.55,0,0,1-.55-.55A.54.54,0,0,1,186.56,396.9Zm-9.61.58a.54.54,0,0,0,.55.54.55.55,0,0,0,.55-.55.56.56,0,0,0-.56-.55A.55.55,0,0,0,177,397.48Zm-9.07,0a.56.56,0,0,0,.56.55.55.55,0,0,0,0-1.1A.55.55,0,0,0,167.88,397.5Zm-9.06,0a.55.55,0,0,0,.55.55.55.55,0,1,0,0-1.1A.55.55,0,0,0,158.82,397.53Zm36.29,11.54a.55.55,0,0,0,.55.55.55.55,0,1,0,0-1.1A.55.55,0,0,0,195.11,409.07Zm-9.07,0a.55.55,0,0,0,.56.54.54.54,0,0,0,.54-.55.53.53,0,0,0-.55-.54A.55.55,0,0,0,186,409.1Zm-9.06,0a.55.55,0,0,0,1.1,0,.55.55,0,0,0-1.1,0Zm-9.06,0a.55.55,0,0,0,1.1,0,.55.55,0,0,0-1.1,0Zm-9.06,0a.55.55,0,0,0,.55.55.56.56,0,0,0,.55-.56.56.56,0,0,0-.56-.54A.54.54,0,0,0,158.86,409.18Zm-9.07,0a.55.55,0,0,0,1.1,0,.55.55,0,0,0-.55-.55A.56.56,0,0,0,149.79,409.21Zm40.77-6.1a.55.55,0,0,0,1.1,0,.55.55,0,1,0-1.1,0Zm-9.06,0a.53.53,0,0,0,.55.54.55.55,0,1,0,0-1.09A.53.53,0,0,0,181.5,403.14Zm-9.07,0a.55.55,0,1,0,1.1,0,.55.55,0,1,0-1.1,0Zm-9.06,0a.55.55,0,0,0,1.1,0,.55.55,0,1,0-1.1,0Zm-9.06,0a.55.55,0,0,0,.55.55.55.55,0,1,0,0-1.1A.55.55,0,0,0,154.31,403.22Zm-9,.3a.51.51,0,0,0,.48.27.54.54,0,0,0,.54-.54.54.54,0,0,0-.38-.53C145.74,403,145.53,403.24,145.32,403.52Zm49.82,17.2a.55.55,0,0,0,1.1,0,.55.55,0,0,0-.55-.55A.55.55,0,0,0,195.14,420.72Zm-9.06,0a.55.55,0,0,0,1.1,0,.55.55,0,1,0-1.1,0Zm-9.06,0a.54.54,0,0,0,.55.55.55.55,0,0,0,.55-.55.56.56,0,0,0-.56-.55A.55.55,0,0,0,177,420.77Zm-9.07,0a.56.56,0,0,0,.56.55.55.55,0,0,0,0-1.1A.55.55,0,0,0,168,420.8Zm-9.06,0a.55.55,0,1,0,.55-.55A.55.55,0,0,0,158.89,420.83Zm-9.06,0a.55.55,0,0,0,.55.55.55.55,0,0,0,0-1.1A.55.55,0,0,0,149.83,420.85Zm-9.06,0a.55.55,0,0,0,.55.55.55.55,0,0,0,0-1.1A.55.55,0,0,0,140.77,420.88Zm58.89-6.15a.55.55,0,0,0,.55.55.55.55,0,1,0-.55-.55Zm-9.07,0a.55.55,0,0,0,.55.55.55.55,0,0,0,0-1.1A.55.55,0,0,0,190.59,414.76Zm-9.06,0a.55.55,0,0,0,1.1,0,.55.55,0,1,0-1.1,0Zm-9.06,0a.55.55,0,0,0,.55.55.55.55,0,0,0,0-1.1A.55.55,0,0,0,172.47,414.81Zm-9.07,0a.56.56,0,0,0,.56.55.55.55,0,0,0,0-1.1A.55.55,0,0,0,163.4,414.84Zm-9.06,0a.55.55,0,0,0,1.1,0,.55.55,0,0,0-1.1,0Zm-9.06,0a.55.55,0,0,0,.55.55.55.55,0,0,0,0-1.1A.55.55,0,0,0,145.28,414.89Zm59,17.45a.55.55,0,0,0,1.1,0,.55.55,0,1,0-1.1,0Zm-9.06,0a.53.53,0,0,0,.55.54.55.55,0,0,0,.55-.55.56.56,0,0,0-.56-.54A.54.54,0,0,0,195.18,432.37Zm-9.07,0a.56.56,0,0,0,.56.55.55.55,0,0,0,0-1.1A.55.55,0,0,0,186.11,432.39Zm-9.06,0a.55.55,0,0,0,.55.55.55.55,0,0,0,0-1.1A.55.55,0,0,0,177.05,432.42Zm-9.06,0a.55.55,0,0,0,1.1,0,.55.55,0,1,0-1.1,0Zm-9.06,0a.54.54,0,0,0,.55.54.53.53,0,0,0,.54-.55.55.55,0,0,0-.55-.55A.56.56,0,0,0,158.93,432.48Zm-9.07,0a.55.55,0,0,0,1.1,0,.55.55,0,1,0-1.1,0Zm-9.06,0a.55.55,0,0,0,.55.55.55.55,0,0,0,0-1.1A.55.55,0,0,0,140.8,432.53Zm58.89-6.15a.55.55,0,0,0,1.1,0,.55.55,0,1,0-1.1,0Zm-9.06,0a.55.55,0,0,0,.55.55.56.56,0,0,0,.55-.56.55.55,0,0,0-1.1,0Zm-9.06,0a.55.55,0,1,0,1.09,0,.55.55,0,0,0-.55-.55A.54.54,0,0,0,181.57,426.43Zm-9.07,0a.55.55,0,0,0,1.1,0,.55.55,0,0,0-1.1,0Zm-9.06,0a.55.55,0,0,0,1.1,0,.55.55,0,1,0-1.1,0Zm-9.06,0a.54.54,0,0,0,.55.54.55.55,0,1,0,0-1.09A.54.54,0,0,0,154.38,426.52Zm-9.07,0a.56.56,0,0,0,.56.55.55.55,0,0,0,0-1.1A.55.55,0,0,0,145.31,426.54Zm-9.06,0a.55.55,0,0,0,.55.55.55.55,0,0,0,0-1.1A.55.55,0,0,0,136.25,426.57Zm68,17.42a.56.56,0,0,0,.56.55.55.55,0,0,0,0-1.1A.55.55,0,0,0,204.27,444Zm-9.06,0a.55.55,0,0,0,1.1,0,.54.54,0,0,0-.55-.54A.55.55,0,0,0,195.21,444Zm-9.06,0a.55.55,0,0,0,.55.55.55.55,0,0,0,0-1.1A.55.55,0,0,0,186.15,444Zm-9.06,0a.55.55,0,0,0,.55.55.55.55,0,1,0,0-1.1A.55.55,0,0,0,177.09,444.07Zm-9.07,0a.55.55,0,0,0,1.1,0,.55.55,0,0,0-1.1,0Zm-9.06,0a.55.55,0,0,0,1.1,0,.55.55,0,1,0-1.1,0Zm-9.06,0a.55.55,0,0,0,1.1,0,.55.55,0,1,0-1.1,0Zm-9.06,0a.55.55,0,0,0,.55.55.55.55,0,1,0-.55-.55ZM199.73,438a.55.55,0,1,0,1.09,0,.55.55,0,1,0-1.09,0Zm-9.07,0a.55.55,0,0,0,1.1,0,.54.54,0,0,0-.55-.54A.55.55,0,0,0,190.66,438.06Zm-9.06,0a.55.55,0,0,0,.55.55.55.55,0,0,0,0-1.1A.55.55,0,0,0,181.6,438.08Zm-9.06,0a.55.55,0,0,0,.55.55.55.55,0,1,0,0-1.1A.55.55,0,0,0,172.54,438.11Zm-9.07,0a.56.56,0,0,0,.56.55.56.56,0,0,0,.54-.56.54.54,0,0,0-.55-.54A.55.55,0,0,0,163.47,438.14Zm-9.06,0a.55.55,0,0,0,1.1,0,.55.55,0,1,0-1.1,0Zm-9.06,0a.55.55,0,0,0,.55.55.55.55,0,0,0,0-1.1A.55.55,0,0,0,145.35,438.19Zm-9.06,0a.55.55,0,0,0,.55.55.55.55,0,1,0,0-1.1A.55.55,0,0,0,136.29,438.22Zm63.47,11.46a.55.55,0,0,0,.55.55.56.56,0,0,0,.55-.56.55.55,0,0,0-1.1,0Zm-9.06,0a.54.54,0,0,0,.55.54.55.55,0,1,0-.55-.54Zm-9.07,0a.56.56,0,0,0,.56.55.55.55,0,0,0,0-1.1A.55.55,0,0,0,181.63,449.73Zm-9.06,0a.55.55,0,0,0,.55.55.55.55,0,0,0,0-1.1A.55.55,0,0,0,172.57,449.76Zm-9.06,0a.55.55,0,0,0,1.1,0,.55.55,0,0,0-1.1,0Zm-9.06,0a.54.54,0,0,0,.55.55.55.55,0,0,0,.55-.55.56.56,0,0,0-.56-.55A.55.55,0,0,0,154.45,449.81Zm-9.07,0a.56.56,0,0,0,.56.55.55.55,0,0,0,0-1.1A.55.55,0,0,0,145.38,449.84Zm-8.4-.51a1.64,1.64,0,0,0,.29.16A.49.49,0,0,0,137,449.33Z" style="fill:#fff"></path><path d="M181,403.23a4.41,4.41,0,1,0,4.39-4.42A4.39,4.39,0,0,0,181,403.23Z" style="opacity:0.1"></path><path d="M151.62,403.32A4.41,4.41,0,1,0,156,398.9,4.4,4.4,0,0,0,151.62,403.32Z" style="opacity:0.1"></path><path d="M182.43,403.22a3,3,0,1,0,3-3A3,3,0,0,0,182.43,403.22Z" style="fill:#263238"></path><path d="M153,403.31a3,3,0,1,0,3-3A3,3,0,0,0,153,403.31Z" style="fill:#263238"></path><path d="M156,402.25a1.67,1.67,0,0,1,1.67,1.68,84.15,84.15,0,0,0,2.47,15.85c1.67,6.31,4.77,13.83,10.06,13.84,9.76,0,13.48-24.58,13.5-29.61a1.68,1.68,0,0,1,3.36,0c0,.33-2.14,33-16.87,33-14.28,0-15.88-32.73-15.88-33.06A1.68,1.68,0,0,1,156,402.25Z" style="fill:#E0BE36"></path><path d="M156,402.25a1.67,1.67,0,0,1,1.67,1.68,84.15,84.15,0,0,0,2.47,15.85c1.67,6.31,4.77,13.83,10.06,13.84,9.76,0,13.48-24.58,13.5-29.61a1.68,1.68,0,0,1,3.36,0c0,.33-2.14,33-16.87,33-14.28,0-15.88-32.73-15.88-33.06A1.68,1.68,0,0,1,156,402.25Z" style="opacity:0.1"></path><path d="M154.61,391.13c-.8,2.82-63.29,14.75-65.6,14.15,0,0,2.3-31.65,8.37-57.24,6.49-27.42,21.35-22.52,26.86-19.1,6.53,4.05,20.72,20.8,22.1,24.25,2.27,5.71-1.69,13.16-1.69,13.16Z" style="fill:#ebebeb"></path><path d="M118.81,326.67H112A13.83,13.83,0,0,1,118.81,326.67Zm5.43,2.27-.48-.29H107.82a12.71,12.71,0,0,0-1.26,1h18.71C124.91,329.37,124.56,329.14,124.24,328.94Zm3.49,2.69H104.62c-.27.31-.54.64-.8,1h25Q128.27,332.1,127.73,331.63Zm3.19,3H102.49c-.19.32-.39.65-.57,1h30Zm2.9,3H100.9q-.23.48-.45,1h34.3Zm2.73,3H99.64l-.36,1h38.15Zm2.6,3H98.61c-.1.32-.2.65-.29,1H140Zm2.47,3H97.77c-.09.33-.17.66-.25,1h44.9Zm2.32,3H97.05c-.08.33-.15.66-.23,1h47.83C144.44,350.14,144.2,349.81,143.94,349.46Zm2.4,3.73a5.92,5.92,0,0,0-.38-.76H96.38l-.21,1h50.26Zm.58,2.21H95.76c-.06.33-.13.66-.19,1H147A8.28,8.28,0,0,0,146.92,355.4Zm-51.74,3c-.07.33-.13.66-.19,1h51.89c0-.33.08-.66.11-1Zm-.56,3-.18,1h51.78c.1-.32.19-.65.28-1Zm-.53,3c-.06.33-.11.66-.17,1h51.22c.12-.28.26-.61.41-1Zm50.94,3H93.59c-.06.33-.11.66-.16,1h52Zm1.19,3H93.12c-.06.33-.11.66-.16,1h53.66Zm1.2,3H92.67q-.09.5-.15,1h55.29Zm1.19,3H92.23c0,.33-.09.66-.14,1H149Zm1.2,3h-58c0,.33-.09.66-.13,1H150.2Zm1.19,3H91.43c0,.33-.09.66-.13,1h60.1Zm1.19,3H91.06l-.12,1h61.65Zm1.2,3H90.7c0,.33-.07.66-.11,1h63.2Zm1.19,3H90.37c0,.33-.08.66-.11,1H153.1c.91-.37,1.44-.68,1.51-.92Zm-64.53,3c0,.34-.08.67-.11,1h52.72c1.4-.34,2.71-.67,3.92-1Zm-.31,3c0,.34-.06.67-.1,1h39.9l4.54-1Zm-.28,3q0,.51-.09,1h25.54l5-1Zm-.27,3c0,.37,0,.71-.08,1h9.71c1.72-.29,3.6-.63,5.61-1Z" style="fill:#dbdbdb"></path><path d="M147,354.54a17.31,17.31,0,0,0-2.75-5.11c-1.26-1.71-2.61-3.36-4-5l-.14-.16h0c-.1-.2-.2-.41-.31-.61-.2-.38-.43-.75-.65-1.12-.48-.75-1-1.46-1.58-2.16a0,0,0,0,0-.08.05c.47.79.94,1.58,1.44,2.35l.29.46c-1.3-1.5-2.64-3-4.08-4.33,0,0-.12,0-.08.06,2.59,3.28,5.32,6.43,7.8,9.8a22.73,22.73,0,0,1,2.94,4.92,11.39,11.39,0,0,1,.68,5.95,20.58,20.58,0,0,1-.82,3.36c-.36,1.14-.69,2.3-1.08,3.42a.08.08,0,0,0,.14.06,27.59,27.59,0,0,0,2.35-5.87A11.82,11.82,0,0,0,147,354.54Z" style="fill:#263238"></path><path d="M102.34,336.79c-11.91,18.8-22.42,52.87-13.42,58.33,12.1,7.35,35.6,10.11,63.64,7.54,3.88-.35,6.72-30.79,2.55-30.63-5.24.21-41.89,2.51-43,1.5-.94-.86.75-15.93,1-31.57C113.4,323.67,105.75,331.41,102.34,336.79Z" style="fill:#ad6359"></path><path d="M152.15,372.26s11.73-1.7,19.46-2.45c4.31-.42,11.77-.48,15.08.66,4.95,1.71,24.55,12,22.16,16.81-2.17,4.35-17.89-6.63-17.89-6.63s16.84,9.68,13.27,14.44-19.69-10-19.69-10,17.09,10.34,12.62,14.67c-3.37,3.27-18.71-9.29-18.71-9.29s14.62,9,11.3,12.49c-3.68,3.88-18.57-6.82-18.57-6.82-9.94,7.5-17.75,7-23.26,6C146.59,401.87,152.15,372.26,152.15,372.26Z" style="fill:#ad6359"></path><path d="M185.35,376.92c2,1.07,4.07,2.14,6,3.38s3.79,2.55,5.58,4a38.83,38.83,0,0,1,6.46,6.17c-3.69-3.83-10.48-8.38-12.4-9.62s-3.77-2.57-5.68-3.81C185.25,377,185.3,376.9,185.35,376.92Z" style="fill:#263238"></path><path d="M180.74,383.77c2.52,1.47,5.07,2.84,7.53,4.42s4.62,3.29,6.95,5c.18.13.05.19-.14.06-2.39-1.65-4.73-3-7.15-4.6s-4.77-3.33-7.23-4.86C180.66,383.8,180.7,383.75,180.74,383.77Z" style="fill:#263238"></path><path d="M175.73,388.93a65.08,65.08,0,0,1,11,7.65c.18.14,0,.19-.18.06-3.61-2.62-6.42-4.69-10.89-7.57C175.59,389,175.64,388.89,175.73,388.93Z" style="fill:#263238"></path><path d="M147.11,372.46c1.81-.3,3.63-.54,5.45-.76s3.64-.43,5.46-.63,3.65-.38,5.48-.53,3.65-.34,5.48-.46c-1.79.43-3.6.74-5.41,1s-3.64.5-5.47.7-3.65.36-5.48.46S149,372.47,147.11,372.46Z" style="fill:#263238"></path><path d="M89.71,359.35l24.39,3.07s1.78-17.08-.12-27.26-7.67-7.8-12.86.84S89.71,359.35,89.71,359.35Z" style="fill:#ebebeb"></path><path d="M111.77,329.64h-5.38a6.47,6.47,0,0,1,1.88-1h2.09A3.26,3.26,0,0,1,111.77,329.64Zm1.21,2h-8.72c-.28.31-.55.64-.83,1h9.91A9.41,9.41,0,0,0,113,331.63Zm1,3.53c0-.19-.07-.38-.11-.56H102l-.63,1h12.68C114,335.45,114,335.3,114,335.16Zm.37,2.41H100.21c-.19.33-.38.66-.56,1h14.81C114.43,338.23,114.39,337.9,114.35,337.57Zm.29,3H98.58c-.18.33-.36.66-.53,1H114.7Zm.16,3H97l-.49,1h18.29Zm0,3H95.56l-.48,1h19.78C114.86,347.15,114.86,346.82,114.85,346.48Zm-20.71,3-.46,1h21.14c0-.32,0-.65,0-1Zm-1.37,3q-.24.51-.45,1h22.4c0-.32,0-.65,0-1Zm-1.34,3-.44,1h23.58q0-.48.06-1Zm-1.3,3-.42,1h24.65c0-.31.06-.64.08-1Zm15.39,3,7.94,1h.65c0-.15,0-.49.09-1Z" style="fill:#dbdbdb"></path><path d="M113.4,357.87a156.41,156.41,0,0,0-20.74-2.43s-.07.16,0,.17c5.62,1,16.94,2.14,20.74,2.5C113.44,358.12,113.47,357.88,113.4,357.87Z" style="fill:#263238"></path><path d="M115.85,348.34s-.06,0-.07,0c-.23.87-.41,1.74-.57,2.63,0-1.85,0-3.71-.14-5.55,0-.07-.1-.06-.1,0-.35,5.55-.83,11.09-1.06,16.64-.58.1-1.17.2-1.76.25a.08.08,0,0,0,0,.15,18.86,18.86,0,0,1,2,.15.32.32,0,0,0,.36-.22,78.86,78.86,0,0,0,.71-9.72c.13-.52.25-1.05.35-1.58A19.3,19.3,0,0,0,115.85,348.34Z" style="fill:#263238"></path><path d="M110.09,329.66c.38,1.14,6.63,8.16,11.91,7.42,1.72-.25.81-9.7.81-9.7l.09-.71,1.28-10L112,310.38l-1.75-.82s-.17,2.76-.35,6.19c0,.16,0,.32,0,.49s0,.37,0,.55c0,.52-.06,1-.08,1.56s0,.79,0,1.2,0,.83,0,1.25A66.3,66.3,0,0,0,110.09,329.66Z" style="fill:#ad6359"></path><path d="M109.9,315.75a20.19,20.19,0,0,0,13,10.92l1.28-10L112,310.38l-1.75-.82S110.08,312.32,109.9,315.75Z" style="fill:#263238"></path><path d="M137.72,300.15c2.79,17.44-7.35,21.08-11.11,21.67-3.42.55-15.11,1.95-19.69-15.11s2.66-23.87,10.41-25.53S134.94,282.7,137.72,300.15Z" style="fill:#ad6359"></path><path d="M134.08,298a12.1,12.1,0,0,1-1.21-.14,2,2,0,0,1-1.21-.39.63.63,0,0,1-.06-.76,1.55,1.55,0,0,1,1.49-.5,2.32,2.32,0,0,1,1.51.68A.67.67,0,0,1,134.08,298Z" style="fill:#263238"></path><path d="M122.53,299.38a9.86,9.86,0,0,0,1.17-.36,1.89,1.89,0,0,0,1.12-.59.62.62,0,0,0-.07-.76,1.56,1.56,0,0,0-1.56-.23,2.27,2.27,0,0,0-1.36.94A.67.67,0,0,0,122.53,299.38Z" style="fill:#263238"></path><path d="M125.27,303.61s-.09.07-.08.12c.17,1.19.17,2.58-.87,3.1,0,0,0,.08,0,.07C125.64,306.56,125.62,304.71,125.27,303.61Z" style="fill:#263238"></path><path d="M124.06,302.48c-1.94.07-1.66,3.95.14,3.88S125.69,302.43,124.06,302.48Z" style="fill:#263238"></path><path d="M123.32,302.74c-.33.25-.63.66-1,.73s-.86-.3-1.19-.67c0,0-.07,0-.07.05,0,.75.39,1.49,1.19,1.54s1.21-.65,1.34-1.41C123.58,302.84,123.45,302.65,123.32,302.74Z" style="fill:#263238"></path><path d="M132.15,302.6c0-.05.1,0,.1.1,0,1.2.29,2.57,1.4,2.9,0,0,0,.07,0,.06C132.31,305.56,132,303.74,132.15,302.6Z" style="fill:#263238"></path><path d="M133.14,301.27c1.92-.27,2.32,3.59.54,3.84S131.53,301.5,133.14,301.27Z" style="fill:#263238"></path><path d="M134,301.44c.33.17.67.52,1,.5s.69-.47.92-.89c0-.05.06,0,.06,0,.1.74-.06,1.53-.76,1.75s-1.17-.39-1.43-1.11C133.76,301.59,133.84,301.37,134,301.44Z" style="fill:#263238"></path><path d="M125.93,312.85c.3.27.6.65,1,.68a3.25,3.25,0,0,0,1.29-.34,0,0,0,0,1,.05.06,1.6,1.6,0,0,1-1.51.69,1.29,1.29,0,0,1-1-1C125.8,312.84,125.89,312.81,125.93,312.85Z" style="fill:#263238"></path><path d="M130.58,308.09s.4,1.77.47,2.62c0,.08-.2.13-.48.17h0a4.05,4.05,0,0,1-4-1.17.09.09,0,0,1,.12-.13,6.08,6.08,0,0,0,3.75.74c0-.24-.78-3-.65-3a7.42,7.42,0,0,1,2,.27c-.72-3.71-2-7.27-2.7-11a.12.12,0,0,1,.22-.07,61.57,61.57,0,0,1,3.41,11.7C132.72,308.7,130.93,308.21,130.58,308.09Z" style="fill:#263238"></path><path d="M108.24,307.35c4.14-.52,3.22-7,3.22-7s4.63-1.06,3.94-8.67a11.53,11.53,0,0,0,9.35,4.32c1.37,0-3.61-2.85-3.61-2.85s6.07,4.15,15.83.93c.69-.23-2.26-10.59-10.61-13.13S111.2,281.4,107,287c0,0-5.4,3.44-5.31,9S106.64,307.56,108.24,307.35Z" style="fill:#263238"></path><path d="M109.91,307.61s-4.24-5.23-6.64-3.68,1.07,9.32,4.08,10.2a3,3,0,0,0,3.88-1.89Z" style="fill:#ad6359"></path><path d="M104.32,306.14s0,.06,0,.07c2.11.69,3.33,2.52,4.23,4.44a1.64,1.64,0,0,0-2.49-.28c0,.05,0,.13.06.11a1.84,1.84,0,0,1,2.07.5,9,9,0,0,1,1.08,1.56c.11.17.43,0,.35-.15l0-.05C109.45,309.72,107.15,306.2,104.32,306.14Z" style="fill:#263238"></path></g></svg>