<svg id="visual" viewBox="0 0 900 675" width="900" height="675" xmlns="http://www.w3.org/2000/svg" xmlns:xlink="http://www.w3.org/1999/xlink" version="1.1"><rect width="900" height="675" fill="#fff"></rect><g><g transform="translate(866 345)"><path d="M76.6 -94.4C98.3 -73.1 114.3 -48 118.8 -21.1C123.3 5.8 116.4 34.5 102.8 60.7C89.3 86.8 69 110.4 42.1 123.6C15.2 136.9 -18.4 139.9 -46 128.8C-73.6 117.8 -95.1 92.6 -111 64.4C-126.8 36.3 -136.8 5.2 -130.9 -22.2C-125.1 -49.6 -103.3 -73.4 -78.8 -94.2C-54.3 -115.1 -27.2 -133.2 0.1 -133.4C27.4 -133.6 54.9 -115.8 76.6 -94.4Z" fill="#E0BE36"></path></g><g transform="translate(261 224)"><path d="M79.1 -94C102 -75 119.7 -49.6 126.3 -20.9C133 7.8 128.6 39.8 112.1 61.2C95.5 82.6 66.7 93.4 39.1 100.2C11.6 107.1 -14.8 110 -37.5 102.1C-60.3 94.2 -79.4 75.6 -93.7 53.1C-107.9 30.5 -117.2 4.1 -112.9 -19.8C-108.5 -43.7 -90.5 -65.1 -69.5 -84.4C-48.4 -103.7 -24.2 -120.9 2 -123.3C28.1 -125.6 56.2 -113 79.1 -94Z" fill="#E0BE36"></path></g></g></svg>