<svg id="visual" viewBox="0 0 675 900" width="675" height="900" xmlns="http://www.w3.org/2000/svg" xmlns:xlink="http://www.w3.org/1999/xlink" version="1.1"><rect width="675" height="900" fill="#fff"></rect><g><g transform="translate(379 729)"><path d="M71.8 -87.9C91.1 -69.4 103.5 -44.9 109.8 -18C116.1 8.8 116.4 38.1 103.1 58C89.8 77.9 62.9 88.5 36.5 96.5C10.1 104.4 -15.9 109.7 -39.8 103.5C-63.7 97.4 -85.6 79.7 -99.6 56.8C-113.6 33.9 -119.8 5.9 -114 -18.9C-108.3 -43.7 -90.5 -65.2 -69.5 -83.4C-48.5 -101.6 -24.3 -116.5 1 -117.7C26.3 -118.9 52.5 -106.4 71.8 -87.9Z" fill="#E0BE36"></path></g><g transform="translate(210 407)"><path d="M49.3 -60.6C63.4 -47 73.9 -30.9 79 -12.4C84.1 6.2 83.9 27.3 74.6 42.8C65.3 58.3 46.9 68.3 27.1 76.2C7.3 84.2 -13.8 90.1 -32.4 85.1C-51.1 80.1 -67.1 64.1 -77.2 45.2C-87.2 26.4 -91.3 4.8 -86.2 -13.7C-81.1 -32.1 -66.9 -47.5 -51 -60.8C-35.2 -74.1 -17.6 -85.5 0 -85.5C17.6 -85.5 35.3 -74.3 49.3 -60.6Z" fill="#E0BE36"></path></g><g transform="translate(472 204)"><path d="M60.9 -70.7C79.2 -57.3 94.3 -38.3 100.2 -16C106.1 6.3 102.8 31.9 89.6 48.8C76.3 65.8 53.2 74 30.4 81.4C7.7 88.7 -14.6 95.1 -35.3 90.4C-56 85.7 -75.1 70 -84.1 50.4C-93.2 30.9 -92.3 7.4 -87.8 -15C-83.3 -37.3 -75.1 -58.5 -59.8 -72.5C-44.6 -86.4 -22.3 -93 -0.5 -92.4C21.3 -91.9 42.7 -84.1 60.9 -70.7Z" fill="#E0BE36"></path></g></g></svg>