<svg id="visual" viewBox="0 0 600 900" width="600" height="900" xmlns="http://www.w3.org/2000/svg" xmlns:xlink="http://www.w3.org/1999/xlink" version="1.1"><rect x="0" y="0" width="600" height="900" fill="#E0BE36"></rect><defs><linearGradient id="grad1_0" x1="0%" y1="100%" x2="100%" y2="0%"><stop offset="30%" stop-color="#e0be36" stop-opacity="1"></stop><stop offset="70%" stop-color="#e0be36" stop-opacity="1"></stop></linearGradient></defs><defs><linearGradient id="grad2_0" x1="0%" y1="100%" x2="100%" y2="0%"><stop offset="30%" stop-color="#e0be36" stop-opacity="1"></stop><stop offset="70%" stop-color="#e0be36" stop-opacity="1"></stop></linearGradient></defs><g transform="translate(600, 900)"><path d="M-324.5 0C-323.2 -69.1 -321.8 -138.3 -281 -162.2C-240.2 -186.2 -159.9 -165 -106.5 -184.5C-53.1 -204 -26.5 -264.2 0 -324.5L0 0Z" fill="#0A014f"></path></g><g transform="translate(0, 0)"><path d="M324.5 0C271.2 30.5 217.8 61.1 197.5 114C177.1 166.9 189.7 242.2 162.2 281C134.8 319.8 67.4 322.2 0 324.5L0 0Z" fill="#0A014f"></path></g></svg>