<svg id="visual" viewBox="0 0 900 600" width="900" height="600" xmlns="http://www.w3.org/2000/svg" xmlns:xlink="http://www.w3.org/1999/xlink" version="1.1"><rect x="0" y="0" width="900" height="600" fill="#E0BE36"></rect><defs><linearGradient id="grad1_0" x1="33.3%" y1="0%" x2="100%" y2="100%"><stop offset="20%" stop-color="#e0be36" stop-opacity="1"></stop><stop offset="80%" stop-color="#e0be36" stop-opacity="1"></stop></linearGradient></defs><defs><linearGradient id="grad2_0" x1="0%" y1="0%" x2="66.7%" y2="100%"><stop offset="20%" stop-color="#e0be36" stop-opacity="1"></stop><stop offset="80%" stop-color="#e0be36" stop-opacity="1"></stop></linearGradient></defs><g transform="translate(900, 0)"><path d="M0 415C-52.7 433.9 -105.4 452.7 -142.1 437.5C-178.9 422.2 -199.8 372.9 -258.6 356C-317.4 339.1 -414.1 354.6 -437.5 317.9C-461 281.2 -411.1 192.1 -401.3 130.4C-391.5 68.7 -421.8 34.4 -452 0L0 0Z" fill="#0A014f"></path></g><g transform="translate(0, 600)"><path d="M0 -533C63.4 -541.3 126.8 -549.6 167.1 -514.4C207.5 -479.1 224.9 -400.4 262.2 -360.8C299.4 -321.3 356.6 -321 404.5 -293.9C452.4 -266.8 490.9 -212.9 490.7 -159.5C490.6 -106 451.8 -53 413 0L0 0Z" fill="#0A014f"></path></g></svg>