<svg id="visual" viewBox="0 0 900 675" width="900" height="675" xmlns="http://www.w3.org/2000/svg" xmlns:xlink="http://www.w3.org/1999/xlink" version="1.1"><rect x="0" y="0" width="900" height="675" fill="#fff"></rect><g transform="translate(877.0363685857923 8.764983870863162)"><path d="M153.7 -202.4C202.3 -176.2 247.2 -135.5 270.7 -83.2C294.2 -30.9 296.4 33.1 268.2 77.1C240 121 181.4 145.1 131.7 157C81.9 169 40.9 168.9 -12.6 186.2C-66.1 203.5 -132.3 238.3 -177.7 224.9C-223.2 211.6 -248.1 150.1 -242 95.9C-235.9 41.6 -198.8 -5.5 -182.4 -60.3C-166 -115.1 -170.3 -177.7 -143.3 -210.9C-116.4 -244.2 -58.2 -248.1 -2.8 -244.2C52.5 -240.3 105 -228.5 153.7 -202.4" fill="#E0BE36"></path></g></svg>